<?xml version="1.0" standalone="no"?>
<!DOCTYPE svg PUBLIC "-//W3C//DTD SVG 20010904//EN"
 "http://www.w3.org/TR/2001/REC-SVG-20010904/DTD/svg10.dtd">
<svg version="1.0" xmlns="http://www.w3.org/2000/svg"
 width="2531.000000pt" height="2531.000000pt" viewBox="0 0 2531.000000 2531.000000"
 preserveAspectRatio="xMidYMid meet">
<metadata>
Created by potrace 1.14, written by Peter Selinger 2001-2017
</metadata>
<g transform="translate(0.000000,2531.000000) scale(0.100000,-0.100000)"
fill="#000000" stroke="none">
<path d="M5275 16169 c-198 -29 -326 -137 -383 -324 -12 -39 -17 -127 -21
-395 l-6 -345 -70 -2 c-132 -5 -175 -12 -230 -37 -126 -57 -180 -129 -255
-339 -96 -266 -208 -583 -214 -603 -5 -18 -28 -27 -133 -54 -440 -113 -800
-242 -1150 -410 l-181 -88 -114 67 c-577 343 -549 329 -611 317 -43 -8 -82
-38 -103 -79 -14 -27 -16 -86 -16 -464 0 -428 0 -433 -22 -460 -11 -15 -28
-35 -37 -44 -25 -25 -104 -139 -133 -193 -35 -63 -86 -215 -86 -255 l0 -31
-275 0 -274 0 18 43 c10 23 35 78 55 121 47 102 53 144 31 201 -57 150 -367
216 -532 114 -48 -30 -83 -86 -83 -132 0 -50 19 -85 72 -132 24 -21 107 -100
186 -176 l142 -137 -107 -229 -108 -228 0 -85 c0 -100 20 -150 87 -219 96 -98
225 -156 370 -167 145 -11 256 30 316 118 40 58 53 103 53 183 1 111 -31 160
-222 340 -87 83 -159 153 -159 158 0 4 99 7 220 7 l219 0 12 -42 c31 -118 104
-253 199 -369 l58 -71 0 -437 c0 -266 4 -446 10 -462 14 -36 66 -77 107 -85
43 -8 76 0 123 30 20 13 165 98 321 190 l284 168 187 -91 c1099 -533 2462
-728 3416 -487 272 69 420 122 623 226 424 216 758 564 920 957 132 321 159
712 71 1029 -121 432 -432 813 -888 1086 -237 142 -464 231 -772 303 -63 15
-126 30 -140 34 l-25 8 -5 299 c-4 173 -10 312 -17 329 -23 66 -53 112 -105
161 -105 99 -163 116 -390 115 l-168 -2 0 284 c0 229 3 287 14 303 13 17 29
19 160 22 l146 3 0 235 0 234 -162 -1 c-90 -1 -190 -5 -223 -10z m205 -2004
c0 -234 4 -425 8 -425 39 0 250 -25 347 -41 498 -83 926 -272 1178 -522 217
-216 346 -501 347 -769 0 -31 5 -60 11 -64 14 -8 5 -134 -18 -244 -118 -587
-687 -991 -1578 -1119 -398 -58 -882 -41 -1330 45 -854 165 -1806 564 -2200
923 -145 132 -242 275 -252 374 -17 170 186 407 536 627 452 284 1116 537
1855 707 l79 18 43 125 c25 69 64 184 88 255 43 124 107 307 162 463 l26 72
349 0 349 0 0 -425z"/>
<path d="M17643 14895 c-67 -29 -68 -34 -68 -385 0 -358 1 -364 75 -394 34
-14 88 -16 355 -16 267 0 321 2 355 16 74 30 75 36 75 394 0 293 -1 317 -19
343 -38 56 -45 57 -408 57 -261 -1 -340 -4 -365 -15z"/>
<path d="M14971 14890 c-463 -36 -797 -232 -964 -566 -77 -152 -137 -397 -137
-556 0 -29 -3 -70 -6 -90 l-7 -38 -147 0 c-137 0 -149 -2 -181 -23 -54 -36
-58 -60 -58 -390 -1 -331 2 -351 61 -387 29 -18 50 -20 181 -20 l147 0 0 -962
c0 -607 4 -976 10 -999 6 -19 22 -46 36 -60 l26 -24 336 -3 c372 -4 397 -1
434 51 l23 32 2 990 3 989 217 1 c198 0 221 2 250 19 56 34 58 50 58 396 0
429 19 405 -309 406 l-220 1 2 44 c4 57 27 145 48 189 26 51 98 118 152 141
31 14 84 23 155 29 189 14 187 9 187 414 0 256 -3 312 -16 345 -30 74 -77 86
-283 71z"/>
<path d="M16957 14890 c-593 -43 -961 -341 -1075 -871 -12 -52 -23 -134 -27
-184 -3 -49 -8 -114 -11 -142 l-5 -53 -148 0 c-138 0 -150 -2 -182 -23 -54
-36 -58 -59 -58 -392 -1 -266 1 -304 17 -335 29 -59 66 -70 229 -70 l143 0 2
-983 c3 -933 4 -984 21 -1011 35 -53 57 -56 412 -56 355 0 377 3 412 56 17 27
18 79 21 1019 l2 990 218 0 c186 0 222 2 248 17 56 31 59 51 59 398 0 429 19
405 -307 405 l-218 0 0 45 c0 98 41 202 104 265 65 64 119 85 250 95 122 9
153 23 173 81 8 23 12 129 12 339 1 278 -1 309 -18 347 -11 23 -29 46 -40 53
-31 16 -101 19 -234 10z"/>
<path d="M20365 13734 c-433 -44 -723 -172 -999 -442 -147 -144 -270 -338
-344 -542 -107 -296 -122 -634 -42 -951 121 -476 493 -875 968 -1038 327 -112
702 -114 1031 -4 437 145 774 474 917 896 40 118 29 162 -50 198 -37 17 -70
19 -381 19 -219 0 -354 -4 -380 -11 -25 -7 -55 -27 -80 -54 -22 -23 -65 -69
-95 -101 -102 -110 -249 -164 -439 -164 -202 1 -350 61 -482 195 -198 202
-243 537 -106 800 47 90 182 221 277 267 150 74 337 92 497 48 107 -29 182
-75 288 -178 47 -46 103 -91 123 -100 32 -14 85 -16 397 -17 398 0 407 1 440
65 20 39 19 54 -10 141 -168 496 -620 869 -1155 953 -100 16 -307 27 -375 20z"/>
<path d="M11695 13704 c-193 -26 -289 -47 -415 -92 -372 -131 -679 -409 -842
-761 -140 -305 -180 -690 -107 -1028 97 -447 373 -803 779 -1004 164 -82 330
-131 538 -160 109 -15 450 -6 559 15 429 82 761 324 944 686 53 104 58 138 28
174 -14 15 -41 31 -64 36 -56 13 -578 12 -650 -1 -42 -8 -84 -27 -149 -68
-170 -107 -279 -137 -470 -128 -247 11 -423 104 -540 287 -35 53 -96 179 -96
196 0 2 449 4 998 4 929 0 999 1 1032 18 67 34 90 118 90 332 -1 420 -148 804
-415 1079 -197 203 -439 336 -714 393 -70 14 -147 20 -286 23 -104 2 -203 1
-220 -1z m395 -768 c96 -34 197 -103 249 -169 40 -53 94 -159 107 -209 l6 -28
-620 0 -620 0 18 50 c56 154 193 292 341 346 98 35 162 44 304 40 120 -3 151
-8 215 -30z"/>
<path d="M17687 13651 c-58 -8 -95 -42 -107 -97 -14 -56 -13 -2659 0 -2706 6
-20 24 -48 41 -63 l31 -26 358 3 358 3 25 23 c14 13 30 43 36 68 8 31 11 425
9 1377 -3 1254 -4 1334 -21 1360 -40 62 -42 62 -377 63 -168 1 -326 -1 -353
-5z"/>
<path d="M22180 13651 c-36 -4 -72 -11 -81 -15 -20 -9 -49 -59 -49 -86 0 -20
58 -177 321 -870 61 -162 118 -311 125 -331 15 -41 279 -740 329 -869 18 -47
83 -220 145 -384 l112 -299 -176 -528 c-196 -588 -200 -607 -145 -653 18 -16
43 -26 62 -26 18 -1 189 -1 381 0 382 1 389 2 425 61 20 32 23 41 536 1594
711 2150 741 2241 749 2283 3 19 0 47 -8 66 -24 59 -40 61 -436 61 -452 0
-429 8 -483 -175 -14 -47 -37 -121 -50 -165 -34 -108 -104 -336 -127 -410 -10
-33 -70 -226 -133 -430 -64 -203 -121 -391 -128 -418 -6 -26 -14 -49 -18 -51
-4 -3 -37 80 -73 182 -37 103 -84 232 -103 287 -20 55 -66 181 -102 280 -35
99 -82 230 -104 290 -22 61 -57 160 -79 220 -21 61 -57 156 -78 213 -69 180
-59 176 -447 178 -165 1 -329 -2 -365 -5z"/>
<path d="M8917 12560 c-108 -28 -213 -114 -264 -217 -25 -53 -28 -68 -28 -163
0 -88 4 -113 23 -154 118 -257 453 -316 640 -112 58 65 87 121 102 204 31 172
-75 359 -239 422 -63 24 -177 34 -234 20z"/>
<path d="M14354 10129 c-87 -25 -125 -127 -81 -217 13 -27 72 -64 137 -87 68
-23 87 -35 99 -62 16 -35 14 -50 -11 -73 -48 -44 -158 -17 -158 40 0 17 -7 20
-45 20 -51 0 -53 -5 -25 -68 15 -33 29 -47 62 -62 80 -36 194 -21 245 32 22
24 28 39 31 93 4 64 4 65 -34 103 -27 27 -60 46 -108 62 -110 36 -143 84 -91
135 16 17 35 25 60 25 38 0 85 -35 85 -65 0 -10 10 -15 30 -15 27 0 30 3 30
31 0 86 -114 141 -226 108z"/>
<path d="M18454 10130 c-56 -17 -127 -73 -159 -124 -25 -42 -31 -62 -34 -128
-3 -72 0 -85 28 -142 52 -106 129 -150 247 -144 63 3 79 8 118 35 l46 33 0
-30 c0 -28 2 -30 40 -30 25 0 41 5 41 13 1 6 2 65 3 130 l1 117 -113 0 -113 0
3 -32 3 -33 78 -5 77 -5 -17 -35 c-27 -53 -75 -80 -142 -80 -68 0 -114 22
-155 73 -25 31 -31 49 -34 101 -5 83 10 128 60 170 48 41 104 53 169 36 45
-12 99 -54 99 -77 0 -9 15 -13 45 -13 l46 0 -16 30 c-45 87 -129 140 -229 146
-33 2 -75 -1 -92 -6z"/>
<path d="M19555 10131 c-89 -23 -159 -84 -190 -165 -21 -54 -17 -185 6 -226
58 -102 139 -153 238 -152 64 1 123 21 158 54 l23 21 0 -31 c0 -31 2 -32 40
-32 l40 0 0 130 0 130 -111 0 -110 0 3 -32 3 -33 73 -3 74 -3 -7 -27 c-14 -58
-69 -92 -145 -92 -65 0 -108 18 -147 63 -29 33 -37 53 -47 127 -10 74 55 172
128 191 75 20 173 -12 198 -66 9 -20 18 -25 50 -25 48 0 49 14 5 72 -59 77
-191 123 -282 99z"/>
<path d="M13416 10119 c-107 -17 -194 -105 -214 -216 -20 -116 19 -209 114
-268 44 -28 54 -30 143 -30 84 0 102 3 146 26 56 30 103 82 107 119 3 21 -1
25 -28 28 -25 3 -36 -3 -59 -33 -40 -54 -81 -75 -143 -75 -91 0 -151 50 -172
144 -31 139 66 261 194 242 53 -8 99 -36 122 -75 15 -26 25 -31 56 -31 21 0
38 2 38 5 0 18 -34 67 -70 99 -67 61 -139 81 -234 65z"/>
<path d="M15245 10119 c-169 -42 -263 -252 -175 -394 49 -80 170 -155 250
-155 44 0 137 38 176 73 72 63 108 178 85 274 -34 139 -195 237 -336 202z
m150 -97 c30 -16 72 -64 84 -95 17 -45 13 -124 -9 -166 -27 -54 -85 -99 -135
-107 -102 -15 -204 80 -205 191 0 53 40 136 78 163 54 39 131 45 187 14z"/>
<path d="M17817 10123 c-4 -3 -7 -120 -7 -260 l0 -253 40 0 40 0 0 170 c0 107
4 170 10 170 6 0 10 -4 10 -9 0 -5 43 -80 95 -166 52 -87 95 -161 95 -166 0
-5 16 -9 35 -9 l35 0 0 255 0 255 -40 0 -40 0 -2 -172 -3 -171 -109 181 c-88
149 -112 182 -130 182 -13 0 -26 -3 -29 -7z"/>
<path d="M21425 10118 c-3 -7 -4 -124 -3 -258 l3 -245 38 -3 37 -3 0 170 c0
107 4 171 10 171 6 0 10 -4 10 -9 0 -4 12 -25 26 -47 14 -21 34 -52 43 -68 9
-17 43 -75 75 -128 52 -88 62 -98 87 -98 l29 0 0 255 0 255 -40 0 -40 0 -2
-170 -3 -171 -106 178 c-91 154 -109 178 -132 181 -16 2 -29 -2 -32 -10z"/>
<path d="M11674 10097 c-2 -7 -3 -120 -2 -252 l3 -240 41 -3 41 -3 1 78 c0 43
1 84 1 91 1 8 24 12 79 12 63 0 84 4 115 23 56 34 77 72 77 137 0 70 -25 118
-76 147 -34 20 -53 23 -157 23 -86 0 -119 -3 -123 -13z m251 -92 c35 -34 33
-76 -6 -120 -31 -35 -33 -36 -97 -33 l-65 3 1 80 c0 44 1 83 1 88 1 4 33 7 71
7 62 0 74 -3 95 -25z"/>
<path d="M12510 9855 l0 -255 40 0 40 0 0 95 0 95 48 -1 47 0 78 -95 78 -94
49 0 c28 0 50 3 50 6 0 3 -34 46 -76 95 l-75 89 32 27 c89 76 76 229 -24 277
-27 12 -65 16 -161 16 l-126 0 0 -255z m265 150 c45 -44 26 -118 -34 -136 -20
-6 -58 -9 -84 -7 l-48 3 -3 83 -2 82 73 0 c65 0 77 -3 98 -25z"/>
<path d="M13790 9928 c0 -198 7 -241 46 -288 52 -61 182 -71 255 -19 55 39 59
58 59 284 l0 205 -40 0 -40 0 -2 -201 -3 -202 -26 -20 c-40 -29 -105 -25 -138
8 -26 25 -26 26 -29 220 l-4 195 -39 0 -39 0 0 -182z"/>
<path d="M14660 10070 l0 -40 70 0 70 0 0 -225 0 -224 38 2 37 2 3 222 2 222
63 3 62 3 0 35 -1 35 -172 3 -172 2 0 -40z"/>
<path d="M15690 9855 l0 -255 40 0 40 0 2 186 3 186 65 -146 c61 -136 67 -146
93 -146 29 0 24 -9 117 202 19 42 38 74 42 72 4 -3 6 -84 4 -180 l-4 -175 42
3 41 3 1 253 1 252 -54 0 c-48 0 -54 -3 -63 -25 -5 -14 -18 -44 -28 -68 -11
-23 -39 -86 -62 -141 l-43 -98 -27 58 c-14 33 -46 107 -71 166 l-44 108 -47 0
-48 0 0 -255z"/>
<path d="M16690 9854 l0 -255 43 3 42 3 3 93 3 92 42 0 c42 0 45 -2 122 -95
l79 -95 49 0 49 0 -63 73 c-35 39 -72 82 -83 95 l-20 23 33 26 c41 33 61 78
61 140 0 63 -28 109 -83 133 -34 16 -65 20 -159 20 l-118 0 0 -256z m267 156
c30 -27 37 -56 22 -91 -16 -41 -56 -59 -129 -59 l-60 0 0 85 0 85 73 0 c59 0
77 -4 94 -20z"/>
<path d="M19041 10073 c-7 -21 -48 -133 -92 -248 -43 -116 -79 -214 -79 -218
0 -4 18 -7 39 -7 39 0 40 0 56 55 l16 55 113 0 113 0 13 -55 13 -55 50 0 c35
0 48 4 45 13 -3 6 -45 121 -94 254 l-89 243 -45 0 c-44 0 -47 -2 -59 -37z
m128 -283 c1 -12 -13 -14 -80 -12 -70 3 -80 6 -74 20 4 9 20 55 36 102 16 47
32 92 35 100 6 14 82 -178 83 -210z"/>
<path d="M20400 9854 l0 -255 43 3 42 3 5 178 5 178 58 -130 c31 -71 57 -134
57 -140 0 -6 15 -11 33 -11 27 0 34 5 46 33 14 31 49 108 97 212 l23 50 0
-187 1 -188 40 0 40 0 0 255 0 255 -53 0 -52 0 -69 -160 c-38 -88 -72 -160
-76 -160 -4 0 -38 72 -76 160 l-69 160 -47 0 -48 0 0 -256z"/>
<path d="M21880 10070 l0 -40 65 0 65 0 0 -220 0 -220 40 0 40 0 0 220 0 220
59 0 c57 0 59 1 63 28 7 52 7 52 -168 52 l-164 0 0 -40z"/>
<path d="M10290 9847 c0 -245 1 -256 20 -262 29 -9 247 3 292 17 42 12 109 73
136 122 13 23 17 56 17 126 0 103 -10 132 -61 184 -56 55 -76 61 -246 64
l-158 4 0 -255z m297 166 c19 -9 47 -34 61 -56 23 -34 27 -51 27 -112 0 -62
-3 -76 -27 -107 -40 -53 -88 -71 -188 -72 l-85 -1 -3 183 -2 182 91 0 c64 0
101 -5 126 -17z"/>
<path d="M10867 10093 c-8 -14 -7 -467 1 -486 7 -17 23 -19 152 -20 l145 -2 3
40 3 40 -113 0 -113 0 0 70 0 70 98 3 97 3 0 34 0 34 -97 -1 -98 0 0 69 1 68
104 5 c85 4 105 8 104 20 0 8 -2 25 -2 38 -2 22 -4 22 -141 22 -77 0 -142 -3
-144 -7z"/>
<path d="M11272 9843 l3 -258 145 1 145 0 3 41 3 41 -110 -6 -111 -5 0 77 0
76 100 0 100 0 0 25 c0 34 -36 47 -125 44 l-70 -2 -3 71 -3 72 106 0 105 0 0
40 0 40 -145 0 -145 0 2 -257z"/>
<path d="M12137 10093 c-4 -3 -7 -118 -7 -255 0 -229 1 -248 18 -249 9 0 78
-1 152 -2 l135 -2 3 37 3 37 -113 3 -113 3 -3 73 -3 72 101 0 101 0 -3 33 -3
32 -90 2 c-49 1 -93 2 -97 3 -5 0 -8 32 -8 70 l0 70 105 0 105 0 0 40 0 40
-138 0 c-76 0 -142 -3 -145 -7z"/>
<path d="M16306 10049 c-9 -63 -6 -459 3 -459 13 -2 277 -2 289 -1 7 1 12 16
12 39 l0 37 -112 0 -113 0 0 70 0 70 98 3 97 3 0 28 c0 37 -16 43 -115 40
l-80 -2 0 69 1 69 104 5 c85 4 105 8 104 20 0 8 -2 25 -2 38 -2 22 -4 22 -141
22 l-138 0 -7 -51z"/>
<path d="M17392 9843 l3 -256 135 -3 c168 -3 172 -2 168 43 l-3 35 -110 2
-110 1 0 70 0 70 98 3 97 3 0 29 c0 34 3 33 -110 34 l-85 1 0 70 0 70 103 3
102 3 0 39 0 40 -145 0 -145 0 2 -257z"/>
<path d="M19992 9844 l3 -256 135 -2 c74 -2 141 -1 148 2 6 2 12 21 12 41 l0
37 -110 -4 -110 -5 0 77 0 76 95 0 95 0 0 29 c0 36 -5 38 -107 37 l-83 -1 0
73 0 72 106 0 105 0 -3 38 -3 37 -143 3 -142 3 2 -257z"/>
<path d="M21020 9846 c0 -194 3 -255 13 -258 6 -3 73 -4 147 -3 l135 3 3 39 3
38 -111 -3 -110 -4 0 76 0 76 98 0 c96 0 99 1 96 23 -1 12 -3 28 -3 35 -1 11
-22 13 -96 10 l-95 -3 0 73 0 72 105 0 105 0 0 40 0 40 -145 0 -145 0 0 -254z"/>
</g>
</svg>
